HIERARCHY
ROOT Hips
{
	OFFSET 0.000000 103.266502 0.000000
	CHANNELS 6 Xposition Yposition Zposition Xrotation Yrotation Zrotation 
	JOINT Spine
	{
		OFFSET -0.002400 12.777504 0.315300
		CHANNELS 3 Xrotation Yrotation Zrotation
		JOINT Spine1
		{
			OFFSET -0.002067 5.816869 0.032633
			CHANNELS 3 Xrotation Yrotation Zrotation
			JOINT Spine1_split
			{
				OFFSET -0.002067 5.816869 0.032633
				CHANNELS 3 Xrotation Yrotation Zrotation
				JOINT Spine2
				{
					OFFSET -0.002067 5.816869 0.032633
					CHANNELS 3 Xrotation Yrotation Zrotation
					JOINT Neck
					{
						OFFSET -0.003700 21.199493 -0.826900
						CHANNELS 3 Xrotation Yrotation Zrotation
						JOINT Head
						{
							OFFSET 0.000000 20.442200 4.834800
							CHANNELS 3 Xrotation Yrotation Zrotation
							JOINT HeadTop_End
							{
								OFFSET 0.000000 34.668396 4.968400
								CHANNELS 3 Xrotation Yrotation Zrotation
								End Site
								{
									OFFSET 0.000000 0.000000 0.000000
								}
							}
						}
					}
					JOINT LeftShoulder
					{
						OFFSET 3.288150 8.794197 -1.372250
						CHANNELS 3 Xrotation Yrotation Zrotation
						JOINT LeftShoulder_split
						{
							OFFSET 3.288150 8.794197 -1.372250
							CHANNELS 3 Xrotation Yrotation Zrotation
							JOINT LeftArm
							{
								OFFSET 11.953299 -2.279007 -0.146200
								CHANNELS 3 Xrotation Yrotation Zrotation
								JOINT LeftForeArm
								{
									OFFSET 18.448900 0.000000 0.000000
									CHANNELS 3 Xrotation Yrotation Zrotation
									JOINT LeftHand
									{
										OFFSET 29.527798 0.000000 0.000000
										CHANNELS 3 Xrotation Yrotation Zrotation
										JOINT LeftHandThumb1
										{
											OFFSET 10.739754 -2.369614 9.225399
											CHANNELS 3 Xrotation Yrotation Zrotation
											JOINT LeftHandThumb2
											{
												OFFSET 4.926170 -2.844131 2.844125
												CHANNELS 3 Xrotation Yrotation Zrotation
												JOINT LeftHandThumb3
												{
													OFFSET 4.614891 -2.664413 2.664409
													CHANNELS 3 Xrotation Yrotation Zrotation
													JOINT LeftHandThumb4
													{
														OFFSET 4.432465 -2.559082 2.559083
														CHANNELS 3 Xrotation Yrotation Zrotation
														End Site
														{
															OFFSET 0.000000 0.000000 0.000000
														}
													}
												}
											}
										}
										JOINT LeftHandIndex1
										{
											OFFSET 26.467674 0.187653 6.405298
											CHANNELS 3 Xrotation Yrotation Zrotation
											JOINT LeftHandIndex2
											{
												OFFSET 8.792900 0.000000 0.000000
												CHANNELS 3 Xrotation Yrotation Zrotation
												JOINT LeftHandIndex3
												{
													OFFSET 10.075203 0.000000 0.000000
													CHANNELS 3 Xrotation Yrotation Zrotation
													End Site
													{
														OFFSET 0.000000 0.000000 0.000000
													}
												}
											}
										}
										JOINT LeftHandMiddle1
										{
											OFFSET 25.764404 0.000000 0.000000
											CHANNELS 3 Xrotation Yrotation Zrotation
											JOINT LeftHandMiddle2
											{
												OFFSET 9.393974 0.000000 0.000000
												CHANNELS 3 Xrotation Yrotation Zrotation
												JOINT LeftHandMiddle3
												{
													OFFSET 10.771950 0.000000 0.000000
													CHANNELS 3 Xrotation Yrotation Zrotation
													End Site
													{
														OFFSET 0.000000 0.000000 0.000000
													}
												}
											}
										}
										JOINT LeftHandRing1
										{
											OFFSET 24.660927 0.144547 -6.225808
											CHANNELS 3 Xrotation Yrotation Zrotation
											JOINT LeftHandRing2
											{
												OFFSET 9.393799 0.000000 0.000000
												CHANNELS 3 Xrotation Yrotation Zrotation
												JOINT LeftHandRing3
												{
													OFFSET 9.928497 0.000000 0.000000
													CHANNELS 3 Xrotation Yrotation Zrotation
													End Site
													{
														OFFSET 0.000000 0.000000 0.000000
													}
												}
											}
										}
										JOINT LeftHandPinky1
										{
											OFFSET 23.655350 0.125290 -12.815412
											CHANNELS 3 Xrotation Yrotation Zrotation
											JOINT LeftHandPinky2
											{
												OFFSET 8.425102 0.000000 0.000000
												CHANNELS 3 Xrotation Yrotation Zrotation
												JOINT LeftHandPinky3
												{
													OFFSET 8.147003 0.000000 0.000000
													CHANNELS 3 Xrotation Yrotation Zrotation
													End Site
													{
														OFFSET 0.000000 0.000000 0.000000
													}
												}
											}
										}
									}
								}
							}
						}
					}
					JOINT RightShoulder
					{
						OFFSET -3.249400 8.794197 -1.372250
						CHANNELS 3 Xrotation Yrotation Zrotation
						JOINT RightShoulder_split
						{
							OFFSET -3.249400 8.794197 -1.372250
							CHANNELS 3 Xrotation Yrotation Zrotation
							JOINT RightArm
							{
								OFFSET -11.953299 -2.279007 -0.146200
								CHANNELS 3 Xrotation Yrotation Zrotation
								JOINT RightForeArm
								{
									OFFSET -18.448900 0.000000 0.000000
									CHANNELS 3 Xrotation Yrotation Zrotation
									JOINT RightHand
									{
										OFFSET -29.527802 0.000000 0.000000
										CHANNELS 3 Xrotation Yrotation Zrotation
										JOINT RightHandThumb1
										{
											OFFSET -10.739754 -2.369614 9.225399
											CHANNELS 3 Xrotation Yrotation Zrotation
											JOINT RightHandThumb2
											{
												OFFSET -4.926170 -2.844131 2.844125
												CHANNELS 3 Xrotation Yrotation Zrotation
												JOINT RightHandThumb3
												{
													OFFSET -4.614891 -2.664413 2.664409
													CHANNELS 3 Xrotation Yrotation Zrotation
													JOINT RightHandThumb4
													{
														OFFSET -4.432465 -2.559082 2.559083
														CHANNELS 3 Xrotation Yrotation Zrotation
														End Site
														{
															OFFSET 0.000000 0.000000 0.000000
														}
													}
												}
											}
										}
										JOINT RightHandIndex1
										{
											OFFSET -26.467674 0.187653 6.405298
											CHANNELS 3 Xrotation Yrotation Zrotation
											JOINT RightHandIndex2
											{
												OFFSET -8.792900 0.000000 0.000000
												CHANNELS 3 Xrotation Yrotation Zrotation
												JOINT RightHandIndex3
												{
													OFFSET -10.075203 0.000000 0.000000
													CHANNELS 3 Xrotation Yrotation Zrotation
													End Site
													{
														OFFSET 0.000000 0.000000 0.000000
													}
												}
											}
										}
										JOINT RightHandMiddle1
										{
											OFFSET -25.764404 0.000000 0.000000
											CHANNELS 3 Xrotation Yrotation Zrotation
											JOINT RightHandMiddle2
											{
												OFFSET -9.393974 0.000000 0.000000
												CHANNELS 3 Xrotation Yrotation Zrotation
												JOINT RightHandMiddle3
												{
													OFFSET -10.771950 0.000000 0.000000
													CHANNELS 3 Xrotation Yrotation Zrotation
													End Site
													{
														OFFSET 0.000000 0.000000 0.000000
													}
												}
											}
										}
										JOINT RightHandRing1
										{
											OFFSET -24.660927 0.144547 -6.225808
											CHANNELS 3 Xrotation Yrotation Zrotation
											JOINT RightHandRing2
											{
												OFFSET -9.393799 0.000000 0.000000
												CHANNELS 3 Xrotation Yrotation Zrotation
												JOINT RightHandRing3
												{
													OFFSET -9.928497 0.000000 0.000000
													CHANNELS 3 Xrotation Yrotation Zrotation
													End Site
													{
														OFFSET 0.000000 0.000000 0.000000
													}
												}
											}
										}
										JOINT RightHandPinky1
										{
											OFFSET -23.655350 0.125290 -12.815412
											CHANNELS 3 Xrotation Yrotation Zrotation
											JOINT RightHandPinky2
											{
												OFFSET -8.425102 0.000000 0.000000
												CHANNELS 3 Xrotation Yrotation Zrotation
												JOINT RightHandPinky3
												{
													OFFSET -8.147003 0.000000 0.000000
													CHANNELS 3 Xrotation Yrotation Zrotation
													End Site
													{
														OFFSET 0.000000 0.000000 0.000000
													}
												}
											}
										}
									}
								}
							}
						}
					}
				}
			}
		}
	}
	JOINT LeftUpLeg
	{
		OFFSET 11.394100 -6.187798 -0.413800
		CHANNELS 3 Xrotation Yrotation Zrotation
		JOINT LeftLeg
		{
			OFFSET 0.430247 -32.302673 3.732800
			CHANNELS 3 Xrotation Yrotation Zrotation
			JOINT LeftFoot
			{
				OFFSET -0.430247 -48.264931 -6.423300
				CHANNELS 3 Xrotation Yrotation Zrotation
				JOINT LeftToeBase
				{
					OFFSET 4.230900 -16.068199 23.438400
					CHANNELS 3 Xrotation Yrotation Zrotation
					JOINT LeftToe_End
					{
						OFFSET 4.510700 0.695400 19.974600
						CHANNELS 3 Xrotation Yrotation Zrotation
						End Site
						{
							OFFSET 0.000000 0.000000 0.000000
						}
					}
				}
			}
		}
	}
	JOINT RightUpLeg
	{
		OFFSET -11.333700 -6.187798 -0.413800
		CHANNELS 3 Xrotation Yrotation Zrotation
		JOINT RightLeg
		{
			OFFSET -0.430392 -32.302628 3.733000
			CHANNELS 3 Xrotation Yrotation Zrotation
			JOINT RightFoot
			{
				OFFSET 0.430392 -48.264973 -6.423500
				CHANNELS 3 Xrotation Yrotation Zrotation
				JOINT RightToeBase
				{
					OFFSET -4.230900 -16.068199 23.438400
					CHANNELS 3 Xrotation Yrotation Zrotation
					JOINT RightToe_End
					{
						OFFSET -4.510700 0.695400 19.974600
						CHANNELS 3 Xrotation Yrotation Zrotation
						End Site
						{
							OFFSET 0.000000 0.000000 0.000000
						}
					}
				}
			}
		}
	}
}
MOTION
Frames: 5
Frame Time: 0.016667
-0.066756 102.162201 -1.007930 -3.421332 3.926085 -4.102556 7.488175 -0.290077 0.126920 -2.114713 -0.634066 1.955411 0.000000 0.000000 0.000000 -2.107417 -0.526124 1.991271 -6.842736 -2.682117 0.508893 2.526784 0.702883 0.466853 0.000000 -0.000000 0.000000 1.091369 1.577358 -3.543032 0.000000 0.000000 0.000000 -1.207959 1.492937 -78.012761 20.698682 -13.799224 -0.079231 -0.026786 -3.262851 -0.409712 10.557726 -2.873372 25.085830 -5.464166 26.111890 -7.055817 -6.646963 3.833430 -2.621019 -0.000000 -0.000000 -0.000000 2.372215 3.636009 -10.145432 -2.155744 2.456260 -20.339704 0.000000 -0.000001 -0.000004 -1.984296 5.666077 -18.668012 0.262865 5.090458 -32.022437 -0.000000 -0.000002 -0.000001 -4.974563 10.107089 -16.316125 4.008931 4.056157 -38.803705 -0.000000 -0.000001 -0.000002 -6.472571 11.328371 -26.083963 10.736397 2.575057 -37.642532 -0.000001 0.000000 -0.000001 0.487466 5.285027 4.298000 0.000000 0.000000 0.000000 -7.282517 4.832114 74.584832 13.988547 13.383141 -4.466971 0.106873 3.530079 -2.699067 15.566069 -0.729120 -16.762773 -6.579414 -24.370057 7.035607 -11.554954 5.741402 5.172639 0.000003 0.000000 -0.000000 2.252298 -2.297215 4.747737 -2.162981 -2.444718 14.947864 0.000001 -0.000000 -0.000000 -1.987001 -5.675763 8.743284 0.263310 -5.087439 22.099618 0.000003 0.000001 -0.000001 -4.977276 -10.114510 7.762295 4.005861 -4.045813 30.251031 -0.000001 -0.000000 -0.000001 -6.472735 -11.324484 16.980591 10.704477 -2.553590 28.536095 0.000002 0.000000 0.000003 -34.801747 -10.431618 -1.346353 56.940354 0.298573 0.126596 14.588056 2.746347 9.120610 -27.884531 0.378713 -7.432626 0.000000 0.000000 -0.000000 -19.006511 -11.573496 7.252559 37.129646 -0.473483 0.149850 7.060771 -0.103137 -7.397244 -26.816813 1.229520 -0.013307 -0.000000 0.000000 0.000000 
0.116361 102.488533 0.149907 -3.031927 3.350114 -3.493294 7.155976 -0.134297 -0.205482 -2.090692 -0.448768 1.814106 0.000000 0.000000 0.000000 -2.078974 -0.346472 1.846579 -6.918092 -2.365406 0.359196 2.758873 0.881738 0.742510 -0.000001 0.000000 0.000000 1.113567 2.099116 -3.775544 0.000000 0.000000 0.000000 -1.049471 1.509235 -77.890787 22.585009 -13.984385 0.425089 -0.073503 -2.782480 -1.181340 10.559560 -2.850870 25.087975 -5.399137 26.208081 -7.056702 -6.608768 3.909419 -2.603657 -0.000001 0.000000 0.000002 2.371334 3.631457 -10.250487 -2.155564 2.457893 -20.421262 -0.000000 -0.000001 -0.000002 -1.983715 5.667487 -18.758749 0.262900 5.090879 -32.139363 -0.000001 0.000002 0.000003 -4.974856 10.106017 -16.411107 4.008879 4.055672 -38.919705 0.000001 0.000000 -0.000001 -6.469982 11.329339 -26.177421 10.734998 2.574665 -37.767207 0.000001 0.000001 0.000002 0.496337 5.504695 4.289107 0.000000 0.000000 0.000000 -7.589862 5.574937 74.483814 15.755872 14.490837 -5.636449 0.036789 2.963961 -2.025656 15.550741 -0.718127 -16.790096 -6.612704 -24.317516 7.035343 -11.558465 5.748779 5.175949 -0.000002 -0.000002 -0.000000 2.246692 -2.245050 4.764517 -2.162963 -2.443908 14.905568 0.000000 0.000000 0.000000 -1.995176 -5.622324 8.773662 0.264322 -5.087732 22.134526 -0.000002 0.000001 0.000000 -4.977498 -10.115048 7.789051 4.005069 -4.044423 30.441771 -0.000002 -0.000001 -0.000002 -6.472030 -11.324898 17.009246 10.695598 -2.560182 28.880140 -0.000002 0.000001 0.000001 -35.435322 -9.147315 -1.674644 53.478489 0.695096 0.142909 14.416055 2.625777 9.236832 -26.637430 0.125832 -4.119810 -0.000000 -0.000000 0.000000 -18.235138 -11.851063 6.179586 36.634379 1.025061 0.261597 6.474391 -0.262361 -7.486994 -27.169989 1.203627 0.314522 -0.000000 -0.000000 -0.000000 
0.291908 102.935715 1.415737 -2.705655 2.893781 -3.031571 6.865318 0.003244 -0.296080 -2.080431 -0.313499 1.675652 0.000000 0.000000 0.000000 -2.058832 -0.215385 1.707925 -6.824233 -1.991732 0.148009 2.570389 1.192967 0.558138 -0.000000 0.000000 -0.000000 1.161758 2.620607 -4.138579 0.000000 0.000000 0.000000 -0.675546 1.681685 -77.754020 23.741082 -14.201289 0.898235 -0.068916 -3.014300 -2.607522 10.564700 -2.788201 25.093973 -5.218054 26.476045 -7.060063 -6.502712 4.121099 -2.555604 0.000000 -0.000000 -0.000002 2.368897 3.618895 -10.542928 -2.155426 2.457286 -20.648563 -0.000000 -0.000000 0.000000 -1.982015 5.665980 -19.011642 0.263190 5.092147 -32.464770 -0.000001 0.000001 0.000002 -4.975657 10.103256 -16.675519 4.008796 4.054413 -39.242452 0.000000 -0.000000 -0.000002 -6.467935 11.326197 -26.437516 10.731167 2.573527 -38.114341 0.000000 0.000000 -0.000002 0.521029 5.806646 4.065538 0.000000 0.000000 0.000000 -8.045852 5.987350 74.740356 12.972006 13.640117 -3.836563 0.904495 8.387696 -8.131739 15.508219 -0.687465 -16.866100 -6.705451 -24.171353 7.034822 -11.568186 5.769276 5.185192 0.000001 -0.000001 -0.000002 2.231055 -2.099807 4.811201 -2.162874 -2.441605 14.787991 -0.000002 -0.000001 -0.000001 -2.018304 -5.473586 8.858204 0.267202 -5.088513 22.231801 -0.000001 -0.000003 0.000000 -4.977003 -10.116606 7.863823 4.002998 -4.040801 30.972579 -0.000002 0.000000 -0.000001 -6.469953 -11.326052 17.089058 10.673223 -2.578290 29.837593 0.000000 -0.000001 0.000001 -35.104126 -7.634096 -1.681278 48.329736 -0.043370 0.050201 15.045956 2.563879 8.654055 -25.316023 0.017903 -0.772336 0.000000 -0.000000 0.000001 -16.845550 -12.270317 5.233490 35.403848 2.186958 0.379378 5.954515 -0.286511 -7.411819 -27.700508 1.173364 0.505493 -0.000001 0.000000 0.000000 
0.487495 103.223236 2.582576 -2.333431 2.344983 -2.715472 6.708359 0.146565 -0.180827 -2.159528 -0.186708 1.502791 0.000000 0.000000 0.000000 -2.121955 -0.096244 1.529946 -6.735156 -1.547358 -0.209004 2.544873 1.437755 0.726827 0.000000 0.000000 -0.000000 1.230187 3.222549 -4.608723 0.000000 0.000000 0.000000 -0.356309 1.988798 -77.531963 24.130888 -14.364888 1.193115 -0.087117 -2.860552 -3.564215 10.572523 -2.692715 25.103110 -4.941864 26.884921 -7.067635 -6.341507 4.444066 -2.483262 -0.000000 -0.000001 0.000001 2.365292 3.599897 -10.988834 -2.155222 2.456401 -20.995059 0.000000 -0.000000 -0.000000 -1.979293 5.663883 -19.397208 0.263522 5.094019 -32.960826 -0.000000 0.000001 0.000001 -4.973503 10.099545 -17.079230 4.008749 4.052774 -39.734485 -0.000002 -0.000001 -0.000002 -6.465133 11.321822 -26.833906 10.726119 2.572099 -38.643318 0.000000 -0.000000 -0.000002 0.556173 6.268263 3.845601 0.000000 0.000000 0.000000 -8.206177 7.015574 74.793720 12.132278 14.618275 -3.985070 0.884282 7.994526 -8.002573 15.443485 -0.640638 -16.981963 -6.846849 -23.948648 7.034687 -11.585105 5.800455 5.195337 0.000001 -0.000002 -0.000000 2.207208 -1.878359 4.882425 -2.162682 -2.438030 14.608697 -0.000000 0.000001 -0.000001 -2.054339 -5.247017 8.987148 0.267248 -5.087487 22.379875 0.000001 0.000002 0.000000 -4.976073 -10.118967 7.977827 4.000131 -4.036007 31.781700 -0.000002 -0.000000 -0.000000 -6.466775 -11.327800 17.210697 10.645750 -2.605217 31.296265 0.000000 0.000001 0.000000 -35.111772 -5.954827 -1.646906 43.710779 -0.392607 0.003620 16.298023 2.373115 9.380456 -24.998970 0.019428 0.037148 0.000000 0.000000 -0.000001 -15.922853 -13.741425 4.141957 34.658094 4.541028 0.589197 5.582173 -0.247783 -8.049743 -27.628351 1.148528 1.134133 -0.000001 0.000000 -0.000000 
0.670167 103.354462 3.829398 -2.033790 1.939860 -2.546350 6.503257 0.307936 0.155441 -2.164170 -0.087649 1.327397 0.000000 0.000000 0.000000 -2.103373 -0.002019 1.355804 -6.706182 -1.103626 -0.543467 2.558715 1.719132 0.758874 0.000000 -0.000000 -0.000000 1.326058 3.845517 -5.238573 0.000000 0.000000 0.000000 -0.005114 2.080355 -77.146481 25.494455 -14.592177 1.554039 -0.146905 -1.828995 -3.393090 10.582449 -2.571654 25.114928 -4.591329 27.403918 -7.081717 -6.138074 4.853969 -2.392961 0.000001 0.000000 0.000000 2.360845 3.576182 -11.553916 -2.154914 2.455402 -21.434320 -0.000001 -0.000000 0.000000 -1.975799 5.661593 -19.885857 0.263948 5.096250 -33.589600 -0.000001 0.000001 0.000002 -4.971217 10.095532 -17.590864 4.008841 4.051160 -40.358126 -0.000000 -0.000002 -0.000001 -6.462121 11.317019 -27.336335 10.721008 2.570725 -39.313811 0.000000 0.000001 0.000001 0.568234 6.440960 3.658638 0.000000 0.000000 0.000000 -8.430295 8.119883 74.878298 10.227163 15.268102 -3.522358 0.993505 8.010043 -8.560340 15.361466 -0.581192 -17.128678 -7.026045 -23.666628 7.035567 -11.606585 5.839942 5.208237 -0.000001 0.000001 0.000001 2.177031 -1.597691 4.972952 -2.162283 -2.437673 14.381238 -0.000001 0.000000 -0.000000 -2.101431 -4.960084 9.150814 0.267294 -5.086199 22.567488 -0.000001 -0.000002 0.000001 -4.974906 -10.117125 8.122873 3.996885 -4.031305 32.807243 -0.000001 -0.000000 -0.000000 -6.462475 -11.325779 17.365519 10.622741 -2.642057 33.144258 0.000001 0.000000 -0.000002 -34.687239 -4.065769 -1.365124 38.459238 -2.359546 -0.168287 18.481454 3.764419 8.393588 -24.998834 0.025074 0.048788 -0.000000 0.000000 0.000000 -14.935269 -14.554179 3.494160 34.049784 6.204103 0.767571 4.980286 -0.236176 -8.283473 -27.826802 1.119460 1.113432 0.000001 0.000000 0.000000 
